# xmcd CD database file
#
# Track frame offsets:
#	150
#	12637
#	27487
#	41470
#	54662
#	62975
#	77652
#	89642
#	104855
#	123455
#	137002
#	147420
#	159717
#	178010
#	190362
#
# Disc length: 2964 seconds
#
# Revision: 0
# Processed by: cddbd v1.4PL0 Copyright (c) Steve Scherf et al.
# Submitted via: CDex 1.51
#
DISCID=e50b920f
DTITLE=Various Artist - Perfect Rag
DYEAR=1900
DGENRE=Jazz
TTITLE0=Chris Barber's Jazzband Feat. Monty Sunshine/Petite Fleur
TTITLE1=Mr. Acker Bilk and His Paramount Jazz Band/Marching Through Georgia
TTITLE2=Kenny Ball and His Jazzmen/American Patrol
TTITLE3=Terry Lightfoot and His Jazzmen/Tishomingo Blues
TTITLE4=Mick Mulligan/Muskrat Rumble
TTITLE5=Max Harris and The New Red Hot Peppers/Black Bottom Stomp
TTITLE6=Monty Sunshine/When You And I Were Young Maggie
TTITLE7=Ian Menzies and The Clyde Valley Stompers/Yellow Dog Blues
TTITLE8=Mr. Acker Bilk and His Paramount Jazz Band/South Rampart Street Parade
TTITLE9=Chris Barber's Jazzband/Whistling Rufus
TTITLE10=Bob Wallis and His Storeyville Jazzmen/Perfect Rag
TTITLE11=Mr. Acker/Easter Parade
TTITLE12=Kenny Ball and His Jazzmen/Teddy Bears'Picnic
TTITLE13=Bob Wallis and His Storeyville Jazzmen/Sur Le Pont D'Avignon
TTITLE14=Mickey Ashman/Ice Cream
EXTD=
EXTT0=
EXTT1=
EXTT2=
EXTT3=
EXTT4=
EXTT5=
EXTT6=
EXTT7=
EXTT8=
EXTT9=
EXTT10=
EXTT11=
EXTT12=
EXTT13=
EXTT14=
PLAYORDER=
